<svg width="18" height="17" viewBox="0 0 18 17" fill="none" xmlns="http://www.w3.org/2000/svg">
<path d="M14.3413 11.9901L17.9103 15.3171L16.7312 16.4166L13.163 13.0888C11.8353 14.0811 10.1839 14.6209 8.48224 14.6186C4.34234 14.6186 0.982422 11.4859 0.982422 7.62585C0.982422 3.76583 4.34234 0.633057 8.48224 0.633057C12.6221 0.633057 15.9821 3.76583 15.9821 7.62585C15.9845 9.21244 15.4056 10.7522 14.3413 11.9901ZM12.6696 11.4136C13.7272 10.3996 14.3178 9.04028 14.3154 7.62585C14.3154 4.6205 11.7047 2.18701 8.48224 2.18701C5.25898 2.18701 2.64905 4.6205 2.64905 7.62585C2.64905 10.6304 5.25898 13.0647 8.48224 13.0647C9.99922 13.0669 11.4571 12.5162 12.5446 11.5302L12.6696 11.4136Z" fill="#CBD5E0"/>
</svg>
