<svg width="24" height="22" viewBox="0 0 24 22" fill="none" xmlns="http://www.w3.org/2000/svg">
<path d="M3.25 21.625H0.75V20.5C0.755511 16.1528 4.66979 12.63 9.5 12.625H14.5C19.3302 12.63 23.2445 16.1528 23.25 20.5V21.625H20.75V20.5C20.7459 17.3949 17.9501 14.8787 14.5 14.875H9.5C6.04993 14.8787 3.25413 17.3949 3.25 20.5V21.625ZM12 11.5C8.54822 11.5 5.75 8.9816 5.75 5.875C5.75 2.7684 8.54822 0.25 12 0.25C15.4518 0.25 18.25 2.7684 18.25 5.875C18.2459 8.98006 15.4501 11.4963 12 11.5ZM12 2.5C9.92893 2.5 8.25 4.01104 8.25 5.875C8.25 7.73896 9.92893 9.25 12 9.25C14.0711 9.25 15.75 7.73896 15.75 5.875C15.75 4.01104 14.0711 2.5 12 2.5Z" fill="#14CC9E"/>
</svg>
