<svg width="122" height="36" viewBox="0 0 122 36" fill="none" xmlns="http://www.w3.org/2000/svg">
<path d="M46.912 14.048V29H43.58V27.068C43.0013 27.7773 42.2827 28.3093 41.424 28.664C40.584 29.0187 39.6507 29.196 38.624 29.196C37.168 29.196 35.8613 28.8787 34.704 28.244C33.5653 27.6093 32.6693 26.7133 32.016 25.556C31.3813 24.3987 31.064 23.0547 31.064 21.524C31.064 19.9933 31.3813 18.6587 32.016 17.52C32.6693 16.3627 33.5653 15.4667 34.704 14.832C35.8613 14.1973 37.168 13.88 38.624 13.88C39.5947 13.88 40.4813 14.048 41.284 14.384C42.1053 14.72 42.8147 15.2147 43.412 15.868V14.048H46.912ZM39.016 26.2C40.304 26.2 41.368 25.7707 42.208 24.912C43.048 24.0533 43.468 22.924 43.468 21.524C43.468 20.124 43.048 18.9947 42.208 18.136C41.368 17.2773 40.304 16.848 39.016 16.848C37.728 16.848 36.664 17.2773 35.824 18.136C35.0027 18.9947 34.592 20.124 34.592 21.524C34.592 22.924 35.0027 24.0533 35.824 24.912C36.664 25.7707 37.728 26.2 39.016 26.2ZM61.0113 29L57.1753 23.82L53.3113 29H49.4473L55.2713 21.412L49.6993 14.048H53.5913L57.2593 18.948L60.9273 14.048H64.7073L59.1073 21.356L64.9593 29H61.0113ZM67.5421 14.048H71.0421V29H67.5421V14.048ZM69.3061 11.584C68.6714 11.584 68.1394 11.388 67.7101 10.996C67.2808 10.5853 67.0661 10.0813 67.0661 9.484C67.0661 8.88667 67.2808 8.392 67.7101 8C68.1394 7.58933 68.6714 7.384 69.3061 7.384C69.9408 7.384 70.4728 7.58 70.9021 7.972C71.3314 8.34533 71.5461 8.82133 71.5461 9.4C71.5461 10.016 71.3314 10.5387 70.9021 10.968C70.4914 11.3787 69.9594 11.584 69.3061 11.584ZM83.9238 13.88C85.3798 13.88 86.6772 14.1973 87.8158 14.832C88.9732 15.4667 89.8785 16.3627 90.5318 17.52C91.1852 18.6773 91.5118 20.012 91.5118 21.524C91.5118 23.036 91.1852 24.38 90.5318 25.556C89.8785 26.7133 88.9732 27.6093 87.8158 28.244C86.6772 28.8787 85.3798 29.196 83.9238 29.196C82.8972 29.196 81.9545 29.0187 81.0958 28.664C80.2558 28.3093 79.5465 27.7773 78.9678 27.068V29H75.6358V8.224H79.1358V15.868C79.7332 15.2147 80.4332 14.72 81.2358 14.384C82.0572 14.048 82.9532 13.88 83.9238 13.88ZM83.5318 26.2C84.8198 26.2 85.8745 25.7707 86.6958 24.912C87.5358 24.0533 87.9558 22.924 87.9558 21.524C87.9558 20.124 87.5358 18.9947 86.6958 18.136C85.8745 17.2773 84.8198 16.848 83.5318 16.848C82.6918 16.848 81.9358 17.044 81.2638 17.436C80.5918 17.8093 80.0598 18.3507 79.6678 19.06C79.2758 19.7693 79.0798 20.5907 79.0798 21.524C79.0798 22.4573 79.2758 23.2787 79.6678 23.988C80.0598 24.6973 80.5918 25.248 81.2638 25.64C81.9358 26.0133 82.6918 26.2 83.5318 26.2ZM101.551 29.196C100.039 29.196 98.6765 28.8693 97.4632 28.216C96.2498 27.5627 95.2978 26.6573 94.6072 25.5C93.9352 24.324 93.5992 22.9987 93.5992 21.524C93.5992 20.0493 93.9352 18.7333 94.6072 17.576C95.2978 16.4187 96.2498 15.5133 97.4632 14.86C98.6765 14.2067 100.039 13.88 101.551 13.88C103.082 13.88 104.454 14.2067 105.667 14.86C106.88 15.5133 107.823 16.4187 108.495 17.576C109.186 18.7333 109.531 20.0493 109.531 21.524C109.531 22.9987 109.186 24.324 108.495 25.5C107.823 26.6573 106.88 27.5627 105.667 28.216C104.454 28.8693 103.082 29.196 101.551 29.196ZM101.551 26.2C102.839 26.2 103.903 25.7707 104.743 24.912C105.583 24.0533 106.003 22.924 106.003 21.524C106.003 20.124 105.583 18.9947 104.743 18.136C103.903 17.2773 102.839 16.848 101.551 16.848C100.263 16.848 99.1992 17.2773 98.3592 18.136C97.5378 18.9947 97.1272 20.124 97.1272 21.524C97.1272 22.924 97.5378 24.0533 98.3592 24.912C99.1992 25.7707 100.263 26.2 101.551 26.2ZM121.278 28.188C120.867 28.524 120.363 28.776 119.766 28.944C119.187 29.112 118.571 29.196 117.918 29.196C116.275 29.196 115.006 28.7667 114.11 27.908C113.214 27.0493 112.766 25.7987 112.766 24.156V10.744H116.266V14.16H120.27V16.96H116.266V24.072C116.266 24.8 116.443 25.36 116.798 25.752C117.171 26.1253 117.685 26.312 118.338 26.312C119.122 26.312 119.775 26.1067 120.298 25.696L121.278 28.188Z" fill="white"/>
<rect width="6.83843" height="29" rx="3.41921" fill="#6FCF97"/>
<rect x="10.3843" y="9.24463" width="6.83843" height="14.0568" rx="3.41921" fill="#27AE60"/>
<rect x="20.1353" width="6.83843" height="29" rx="3.41921" fill="#6FCF97"/>
<rect x="10.3843" width="6.83843" height="7.97817" rx="3.41921" fill="#E1F083"/>
</svg>
